<svg width="241" height="241" viewBox="0 0 241 241" fill="none" xmlns="http://www.w3.org/2000/svg">
<path d="M135.06 101.421L136.065 111.463C142.09 111.463 147.613 113.471 152.131 116.985C153.135 117.99 154.14 118.492 155.144 119.496C157.654 122.006 160.165 125.521 161.169 129.035L170.708 125.521C168.7 121.002 166.19 116.483 162.173 112.969C160.667 111.463 159.16 110.458 158.156 109.454C151.629 104.935 144.6 101.923 137.069 101.923C136.065 101.421 135.563 101.421 135.06 101.421Z" fill="#DADADA"/>
<path d="M210.373 188.783L214.892 184.265L196.817 166.19L188.281 174.725V163.679C194.306 152.633 195.812 139.579 193.804 127.027C192.8 121.504 190.792 115.981 188.281 111.462V69.7895L185.269 66.777L140.583 22.0916L122.006 3.51453H25.6062C12.552 3.51453 2.51038 14.0583 2.51038 26.6104V215.896C2.51038 228.95 13.0541 238.992 25.6062 238.992H165.185C177.737 238.992 188.281 228.448 188.281 215.896V210.875L188.783 210.373L213.385 234.975C215.896 237.485 219.41 238.992 222.423 238.992C225.937 238.992 228.95 237.485 231.46 234.975L234.473 231.962C239.494 226.942 239.494 218.908 234.473 213.887L210.373 188.783ZM139.077 90.3749C141.587 90.3749 143.596 90.877 146.106 91.3791C149.621 91.8812 152.633 92.8854 156.148 94.3916C159.662 95.8979 163.177 97.9062 165.687 99.9145C167.194 100.919 168.7 102.425 170.708 104.433C172.717 106.442 174.725 108.952 176.231 111.462C177.235 112.467 177.737 113.973 178.742 115.479C181.252 119.496 182.758 124.517 183.762 129.537C185.771 140.081 183.762 151.127 178.742 160.667C176.733 164.683 173.721 168.198 170.708 171.712C166.19 176.231 161.169 179.244 156.148 181.754C146.106 186.273 135.06 186.775 124.517 183.762C116.985 181.754 109.956 177.235 103.931 171.712C102.927 170.708 101.923 169.202 100.919 168.198C99.4125 166.692 98.4083 165.185 97.4041 163.177C95.3958 159.662 93.3875 156.148 92.3833 152.131C87.3624 135.562 91.3791 116.985 103.931 104.433C104.433 103.931 104.433 103.931 104.935 103.429C105.94 102.425 106.442 101.923 107.446 101.421C115.479 94.3916 125.521 90.3749 136.065 90.3749C136.567 90.3749 137.069 90.3749 137.571 90.3749C138.073 90.3749 138.575 89.8729 139.077 90.3749ZM124.517 19.5812L135.06 30.1249L171.21 66.2749H137.571C130.542 66.2749 124.517 60.2499 124.517 53.2208V19.5812ZM200.331 184.265L184.265 200.833L180.75 196.817L196.817 180.75L200.331 184.265ZM165.185 228.448H25.6062C18.075 228.448 12.552 222.423 12.552 215.394V25.6062C12.552 18.0749 18.577 12.552 25.6062 12.552H114.475V53.2208C114.475 66.2749 125.019 76.3166 137.571 76.3166H178.24V96.902C178.24 96.902 178.24 96.3999 177.737 96.3999C175.729 94.3916 173.721 92.3833 171.712 90.877C168.198 88.3666 164.181 85.8562 160.165 83.8479C156.148 82.3416 152.131 80.8354 148.115 80.3333C145.102 80.3333 142.09 80.3333 140.081 80.3333C139.579 80.3333 138.575 79.8312 138.073 80.3333C123.01 80.3333 108.45 85.8562 97.9062 96.3999L97.4041 96.902C96.3999 97.9062 95.8979 98.4083 95.3958 99.4124H33.6395V109.454H87.3624C83.3458 116.483 81.3375 124.015 80.3333 131.546H33.6395V141.587H80.3333C80.8354 145.604 81.3375 149.621 82.3416 153.135C83.3458 156.65 84.852 160.165 86.3583 163.679H33.6395V173.721H92.8854C93.8895 175.227 95.3958 176.231 96.4 177.737C103.429 184.767 111.965 189.787 121.504 192.298C124.015 192.8 126.023 193.302 128.533 193.804C129.035 193.804 129.035 193.804 129.537 193.804C132.048 194.306 134.056 194.306 136.567 194.306C136.567 194.306 136.567 194.306 137.069 194.306C137.571 194.306 137.571 194.306 138.073 194.306C139.579 194.306 141.085 194.306 142.09 194.306C142.592 194.306 143.094 194.306 143.596 194.306C145.102 194.306 146.106 193.804 147.612 193.804C148.115 193.804 148.617 193.804 149.119 193.302C150.625 192.8 152.131 192.8 153.135 192.298C153.637 192.298 153.637 192.298 154.14 191.796C156.148 191.294 157.654 190.792 159.16 189.787C164.181 187.779 169.202 184.767 173.219 180.75L176.733 184.265L165.185 195.812L177.235 207.862V214.39C178.24 222.423 172.717 228.448 165.185 228.448ZM227.444 224.431L224.431 227.444C223.427 228.448 221.419 228.448 220.415 227.444L195.812 203.344L202.842 196.315L227.444 220.917C228.95 221.419 228.95 223.427 227.444 224.431Z" fill="#DADADA"/>
<path d="M95.3958 34.6438H33.6395V44.6855H95.3958V34.6438Z" fill="#DADADA"/>
<path d="M95.3958 66.7771H33.6395V76.8188H95.3958V66.7771Z" fill="#DADADA"/>
<path d="M156.65 196.315H33.6395V206.356H156.65V196.315Z" fill="#DADADA"/>
</svg>

