<svg width="3008" height="1291" viewBox="0 0 3008 1291" fill="none" xmlns="http://www.w3.org/2000/svg">
<path d="M247 1047C203.667 1047 161.333 1041.33 120 1030C78.6667 1018.67 45.6667 1004.33 21 987L69 892C93 908 121.667 921 155 931C189 940.333 222.333 945 255 945C329.667 945 367 925.333 367 886C367 867.333 357.333 854.333 338 847C319.333 839.667 289 832.667 247 826C203 819.333 167 811.667 139 803C111.667 794.333 87.6667 779.333 67 758C47 736 37 705.667 37 667C37 616.333 58 576 100 546C142.667 515.333 200 500 272 500C308.667 500 345.333 504.333 382 513C418.667 521 448.667 532 472 546L424 641C378.667 614.333 327.667 601 271 601C234.333 601 206.333 606.667 187 618C168.333 628.667 159 643 159 661C159 681 169 695.333 189 704C209.667 712 241.333 719.667 284 727C326.667 733.667 361.667 741.333 389 750C416.333 758.667 439.667 773.333 459 794C479 814.667 489 844 489 882C489 932 467.333 972 424 1002C380.667 1032 321.667 1047 247 1047ZM546.648 506H671.648V1040H546.648V506ZM609.648 418C586.982 418 567.982 411 552.648 397C537.315 382.333 529.648 364.333 529.648 343C529.648 321.667 537.315 304 552.648 290C567.982 275.333 586.982 268 609.648 268C632.315 268 651.315 275 666.648 289C681.982 302.333 689.648 319.333 689.648 340C689.648 362 681.982 380.667 666.648 396C651.982 410.667 632.982 418 609.648 418ZM1088.71 500C1156.04 500 1210.04 519.667 1250.71 559C1291.38 598.333 1311.71 656.667 1311.71 734V1040H1186.71V750C1186.71 703.333 1175.71 668.333 1153.71 645C1131.71 621 1100.38 609 1059.71 609C1013.71 609 977.378 623 950.711 651C924.044 678.333 910.711 718 910.711 770V1040H785.711V506H904.711V575C925.378 550.333 951.378 531.667 982.711 519C1014.04 506.333 1049.38 500 1088.71 500ZM1720.28 1011C1705.61 1023 1687.61 1032 1666.28 1038C1645.61 1044 1623.61 1047 1600.28 1047C1541.61 1047 1496.28 1031.67 1464.28 1001C1432.28 970.333 1416.28 925.667 1416.28 867V388H1541.28V510H1684.28V610H1541.28V864C1541.28 890 1547.61 910 1560.28 924C1573.61 937.333 1591.95 944 1615.28 944C1643.28 944 1666.61 936.667 1685.28 922L1720.28 1011Z" fill="#333333"/>
<path d="M1773.6 506H1898.6V1040H1773.6V506ZM1836.6 418C1813.93 418 1794.93 411 1779.6 397C1764.27 382.333 1756.6 364.333 1756.6 343C1756.6 321.667 1764.27 304 1779.6 290C1794.93 275.333 1813.93 268 1836.6 268C1859.27 268 1878.27 275 1893.6 289C1908.93 302.333 1916.6 319.333 1916.6 340C1916.6 362 1908.93 380.667 1893.6 396C1878.93 410.667 1859.93 418 1836.6 418ZM2534.66 506V1040H2415.66V971C2395 996.333 2369.33 1015.33 2338.66 1028C2308.66 1040.67 2275.33 1047 2238.66 1047C2186.66 1047 2140 1035.67 2098.66 1013C2058 990.333 2026 958.333 2002.66 917C1980 875.667 1968.66 827.667 1968.66 773C1968.66 718.333 1980 670.667 2002.66 630C2026 588.667 2058 556.667 2098.66 534C2140 511.333 2186.66 500 2238.66 500C2273.33 500 2305 506 2333.66 518C2363 530 2388.33 547.667 2409.66 571V506H2534.66ZM2252.66 940C2298.66 940 2336.66 924.667 2366.66 894C2396.66 863.333 2411.66 823 2411.66 773C2411.66 723 2396.66 682.667 2366.66 652C2336.66 621.333 2298.66 606 2252.66 606C2206.66 606 2168.66 621.333 2138.66 652C2109.33 682.667 2094.66 723 2094.66 773C2094.66 823 2109.33 863.333 2138.66 894C2168.66 924.667 2206.66 940 2252.66 940Z" fill="#4510A3"/>
<path d="M2502.66 319.869H2439V308.546C2442.98 308.546 2450.94 309.962 2502.66 308.546C2566.53 306.799 2623.08 267.803 2651.21 237.779C2676.41 210.887 2698.08 130.212 2705.59 89.167V0H2718.86V89.167C2718.86 118.418 2729.73 189.091 2773.24 237.779C2816.74 286.467 2889.51 305.244 2920.46 308.546H3008V319.869H2920.46C2888.63 327.418 2815.68 351.007 2778.54 384.975C2741.41 418.944 2723.28 501.034 2718.86 537.833V627H2705.59V537.833C2700.29 502.921 2680.92 423.473 2645.91 384.975C2610.89 346.478 2535.82 325.53 2502.66 319.869Z" fill="#0CD2AB"/>
</svg>
